<svg width="360" height="2939" viewBox="0 0 360 2939" fill="none" xmlns="http://www.w3.org/2000/svg">
<g filter="url(#filter0_d_1192_357)">
<path d="M340 20V814.782C340 825.828 331.083 834.782 320.037 834.782C290.489 834.782 234.271 834.782 194 834.782C151.555 834.782 75.8793 834.782 39.9697 834.782C28.924 834.782 20 843.736 20 854.782V1441C20 1452.05 28.9543 1461 40 1461H192.188H316.376C327.422 1461 336.376 1469.95 336.376 1481V2083.5C336.376 2094.55 327.422 2103.5 316.376 2103.5H192.188H40C28.9543 2103.5 20 2112.45 20 2123.5V2781C20 2792.05 28.9543 2801 40 2801H192.188H316.376C327.422 2801 336.376 2809.95 336.376 2821V2919" stroke="url(#paint0_linear_1192_357)" stroke-width="7"/>
</g>
<defs>
<filter id="filter0_d_1192_357" x="-3.5" y="0" width="367" height="2939" filterUnits="userSpaceOnUse" color-interpolation-filters="sRGB">
<feFlood flood-opacity="0" result="BackgroundImageFix"/>
<feColorMatrix in="SourceAlpha" type="matrix" values="0 0 0 0 0 0 0 0 0 0 0 0 0 0 0 0 0 0 127 0" result="hardAlpha"/>
<feOffset/>
<feGaussianBlur stdDeviation="10"/>
<feComposite in2="hardAlpha" operator="out"/>
<feColorMatrix type="matrix" values="0 0 0 0 0.584314 0 0 0 0 0.0156863 0 0 0 0 0.517647 0 0 0 0.2 0"/>
<feBlend mode="normal" in2="BackgroundImageFix" result="effect1_dropShadow_1192_357"/>
<feBlend mode="normal" in="SourceGraphic" in2="effect1_dropShadow_1192_357" result="shape"/>
</filter>
<linearGradient id="paint0_linear_1192_357" x1="194.001" y1="-479.046" x2="725.42" y2="-380.198" gradientUnits="userSpaceOnUse">
<stop offset="0.015625" stop-color="#FF0A6C"/>
<stop offset="0.211458" stop-color="#FF0A6C"/>
<stop offset="0.607292" stop-color="#C2128D"/>
<stop offset="0.64158" stop-color="#B51495"/>
<stop offset="1" stop-color="#402AAB"/>
</linearGradient>
</defs>
</svg>
